<svg width="7" height="12" viewBox="0 0 7 12" fill="none" xmlns="http://www.w3.org/2000/svg">
<path d="M0.967228 1.43051e-05C1.08052 -0.000640869 1.19282 0.0210724 1.2977 0.0639095C1.40257 0.106748 1.49796 0.169868 1.5784 0.249648L6.74322 5.41446C6.90354 5.57575 6.99353 5.79392 6.99353 6.02133C6.99353 6.24874 6.90354 6.46691 6.74322 6.6282L1.5784 11.793C1.41373 11.934 1.2019 12.0077 0.985259 11.9994C0.768616 11.991 0.563108 11.9012 0.409804 11.7479C0.2565 11.5946 0.16669 11.3891 0.158322 11.1724C0.149954 10.9558 0.223644 10.744 0.364666 10.5793L4.91831 6.02563L0.364666 1.47199C0.243791 1.3521 0.161179 1.19907 0.127276 1.03223C0.0933733 0.865396 0.109703 0.692254 0.174199 0.534699C0.238695 0.377145 0.348461 0.242252 0.489619 0.147079C0.630776 0.0519066 0.796985 0.000727654 0.967228 1.43051e-05Z" fill="white"/>
</svg>
