<svg width="59" height="50" viewBox="0 0 59 50" fill="none" xmlns="http://www.w3.org/2000/svg">
<path d="M56.9652 2.71224C54.0697 7.38056 47.8059 20.3218 43.6694 30.3676C39.5329 40.3542 35.5146 47.9772 35.2192 46.3817C34.9828 45.2589 38.4102 35.5086 41.2466 29.1857C44.3194 22.2719 44.0831 16.599 40.833 20.3809C39.2375 22.2128 38.0556 21.9173 38.0556 19.6718C38.0556 17.7218 37.2874 18.0172 35.5737 20.6173C34.0373 22.9219 31.6145 23.631 30.4327 22.1537C29.7236 21.3264 29.4281 21.4446 27.7735 23.0401C25.1143 25.6402 24.4052 26.4675 22.4552 28.6539C19.8551 31.7858 19.5006 31.3131 19.9142 25.0492C20.0915 21.9764 20.0324 19.4354 19.8551 19.4354C19.6187 19.4354 18.6733 20.7946 17.6687 22.4492C16.3686 24.6947 15.8368 25.1674 15.6595 24.3401C15.0686 21.5037 9.69118 42.9543 9.69118 48.2135C9.69118 51.5818 10.6958 49.8681 11.1094 45.7316C11.7594 39.586 14.7731 28.5948 16.605 25.8174L18.2596 23.3356L18.4369 26.2902C18.7914 33.204 19.6778 33.3813 25.1734 27.7675C29.0145 23.8083 29.2508 23.6901 31.4963 23.9856C33.5055 24.281 34.0373 24.1038 35.3965 22.6264C36.8147 21.09 37.051 21.0309 37.5238 21.9764C38.292 23.2765 39.7102 23.2765 41.1284 21.9764C42.133 21.09 42.1921 21.09 42.1921 22.7446C42.1921 23.6901 41.3057 26.4084 40.183 28.713C37.5829 34.0313 34.7464 42.4815 34.2146 46.1453C33.86 48.509 33.9191 48.9817 34.6873 48.9817C36.8147 48.9817 39.592 43.6043 45.974 27.5902C49.1059 19.6127 53.4788 10.3352 56.9652 4.18956C59.6835 -0.596941 59.6835 -1.54242 56.9652 2.71224Z" fill="black"/>
<path d="M4.49104 5.54884C3.01372 7.4398 2.12733 11.2217 1.71368 17.6037C1.35913 23.2175 0.650018 25.0494 0.827296 20.0265C1.00457 13.7036 0.650018 15.7128 0.23637 22.9811C0 27.0585 -0.0590926 30.4859 0.0590926 30.6041C0.472741 31.1359 0.886389 30.1313 1.35913 27.6495C1.65459 26.2312 1.89096 25.3449 1.95006 25.7585C2.00915 26.1721 2.71826 27.1767 3.60465 28.004C6.73655 30.8405 10.9912 29.6586 13.8277 25.0494C14.5368 23.9266 15.305 23.0993 15.5413 23.2175C16.1323 23.6312 18.4369 17.2492 17.9641 16.481C17.7278 16.0673 17.1959 16.7173 16.5459 18.1946C15.2459 21.5038 14.8322 21.2675 16.0141 17.8992C17.1959 14.4718 16.4868 11.8127 13.4731 8.32619C9.80937 4.01243 6.50018 3.00786 4.49104 5.54884ZM11.2867 7.32162C15.6595 11.0444 16.6641 16.5401 13.7095 20.322L12.4094 21.9766L11.0503 20.322C10.2821 19.4356 9.573 18.7856 9.45481 18.9038C9.33663 19.0219 8.50933 20.5584 7.62294 22.272C4.19557 28.5949 2.95463 27.8858 2.83644 19.5538C2.71826 10.3944 4.43194 5.25338 7.62294 5.25338C8.33205 5.25338 9.98665 6.19886 11.2867 7.32162ZM11.2276 22.1539C12.5867 23.0993 12.764 23.0402 13.9458 22.0357L15.1868 20.9129L14.064 22.863C12.3503 25.9358 9.33663 28.2995 7.26839 28.2995C6.26381 28.2995 5.5547 28.1222 5.67289 27.8267C6.14563 26.7631 9.39572 21.2084 9.573 21.2084C9.63209 21.2084 10.4003 21.622 11.2276 22.1539Z" fill="black"/>
</svg>
