<svg width="16" height="18" viewBox="0 0 16 18" fill="none" xmlns="http://www.w3.org/2000/svg">
<path d="M15.9962 4.51372C14.9689 4.51372 14.0211 4.17341 13.26 3.5993C12.3871 2.94118 11.7599 1.97579 11.5384 0.863093C11.4836 0.588171 11.454 0.30446 11.4512 0.0137177H8.51671V8.03216L8.5132 12.4242C8.5132 13.5984 7.74855 14.5941 6.68859 14.9442C6.38097 15.0458 6.04875 15.094 5.70281 15.075C5.26125 15.0507 4.84746 14.9175 4.48781 14.7024C3.72246 14.2446 3.20355 13.4142 3.18949 12.4643C3.16734 10.9797 4.36757 9.76923 5.85117 9.76923C6.14402 9.76923 6.42527 9.81704 6.68859 9.90387V7.71223V6.92438C6.41086 6.88325 6.1282 6.8618 5.84238 6.8618C4.21851 6.8618 2.69976 7.5368 1.61414 8.75286C0.793589 9.67184 0.301401 10.8443 0.225464 12.0737C0.125972 13.6888 0.716948 15.2241 1.86304 16.3568C2.03144 16.5231 2.20828 16.6774 2.3932 16.8198C3.37582 17.576 4.5771 17.9859 5.84238 17.9859C6.1282 17.9859 6.41086 17.9648 6.68859 17.9237C7.87054 17.7486 8.96109 17.2076 9.82171 16.3568C10.8792 15.3116 11.4635 13.924 11.4698 12.4471L11.4547 5.88833C11.9592 6.27751 12.5108 6.59954 13.1028 6.8495C14.0236 7.23798 14.9999 7.43485 16.0046 7.4345V5.30368V4.51301C16.0053 4.51372 15.9969 4.51372 15.9962 4.51372Z" fill="white"/>
</svg>
