<svg width="85" height="85" viewBox="0 0 85 85" fill="none" xmlns="http://www.w3.org/2000/svg">
<circle cx="42.5" cy="42.5" r="42.5" fill="white"/>
<path fill-rule="evenodd" clip-rule="evenodd" d="M41.8369 72.1739C48.8928 72.3037 55.7624 69.9053 61.2042 65.4121C66.646 60.9189 70.301 54.6273 71.5087 47.6743C72.7164 40.7214 71.3971 33.5657 67.7892 27.5006C64.1813 21.4355 58.5229 16.8611 51.8365 14.604L51.4561 14.4772C53.3024 17.7377 54.3572 21.3862 54.5356 25.1289C54.2436 27.0886 54.4301 29.0899 55.0791 30.962C55.9489 32.7062 57.0123 34.3469 58.2493 35.853C58.3722 36.1408 58.3827 36.4643 58.2787 36.7594C58.1748 37.0546 57.9639 37.3 57.6877 37.4472C56.6551 38.1356 55.532 38.5522 55.7131 39.2587C55.7918 39.7547 55.984 40.2259 56.2747 40.6354C56.5464 40.9796 56.7095 41.36 56.2747 41.5774C55.8399 41.7948 55.3146 41.9941 55.4776 42.3926C55.6407 42.7911 56.166 42.9723 56.1117 43.4976C56.0573 44.023 55.2965 44.0773 54.9885 44.2041C54.7112 44.269 54.4705 44.4401 54.3181 44.6806C54.1656 44.9211 54.1137 45.2119 54.1733 45.4903C54.3183 46.3779 54.6443 47.4467 53.8654 48.0626C53.4459 48.3631 52.96 48.5579 52.4491 48.6304C51.9382 48.703 51.4173 48.6511 50.9307 48.4793C34.3373 45.6714 29.9896 62.5547 41.8732 72.1739H41.8369Z" fill="#CECECE"/>
<path fill-rule="evenodd" clip-rule="evenodd" d="M45.0963 13.1977C37.476 12.5679 29.908 14.915 23.9814 19.7463C18.0548 24.5775 14.2305 31.5171 13.3116 39.108C12.3926 46.6989 14.4504 54.3506 19.0529 60.4565C23.6555 66.5625 30.4447 70.6477 37.9952 71.8545C32.7237 67.525 28.6296 61.8006 29.0282 55.5509C29.3724 50.1164 33.2671 44.863 38.5024 40.4066C47.1071 33.1606 50.9656 24.6284 48.4838 13.7774C47.3678 13.514 46.2364 13.3204 45.0963 13.1977Z" fill="#FAB691"/>
</svg>
