<svg width="97" height="50" viewBox="0 0 97 50" fill="none" xmlns="http://www.w3.org/2000/svg">
<path d="M13.3473 1.84003C7.4822 5.4051 4.54965 11.3277 6.73469 15.4678C7.5972 17.1928 11.6798 20.1829 15.1873 21.6779C16.2799 22.1954 16.9124 23.0579 17.3149 24.5529C18.0049 26.968 18.2924 35.4781 17.7749 36.0531C17.5449 36.2256 16.6824 35.8806 15.8198 35.3056C12.2548 33.0056 7.88471 31.0505 6.04467 31.0505C1.38709 31.0505 -1.66046 38.5832 0.984586 43.7008C5.58467 52.8434 14.3823 51.8659 17.9474 41.8607C18.5224 40.1932 19.2699 38.8132 19.6149 38.8707C19.9599 38.9282 20.8224 38.9857 21.5124 38.9857C22.72 39.1007 22.6625 39.2157 20.8224 40.8257C18.9249 42.4357 18.8674 42.5507 19.9024 43.3558C20.4774 43.8158 22.4325 44.3908 24.215 44.6208C27.3775 45.0233 31.1151 44.7933 61.0731 42.5507C69.4683 41.9182 80.221 41.2282 84.936 41.0557C89.7086 40.8257 94.5962 40.4807 95.8612 40.2507C102.531 38.9857 74.4134 40.1932 48.9979 42.2632C29.8501 43.8158 22.0875 43.9883 20.9949 42.8958C20.7074 42.6657 21.2249 41.8607 22.0875 41.1132C23.4675 39.9057 23.9275 39.7907 25.48 40.3657C30.4826 42.0907 37.1527 38.8707 40.4303 33.0631L42.1553 30.0155L48.0204 28.118C51.2405 27.083 57.2781 25.4154 61.3606 24.3804C69.0083 22.4829 70.0433 21.7354 62.9707 23.2304C58.0256 24.2654 47.1004 27.313 44.2828 28.463L42.0978 29.3255V27.313C42.0978 25.0129 41.6953 25.1854 50.7229 24.1504C54.058 23.8054 58.9456 23.1154 61.6481 22.7129C64.3507 22.2529 67.7432 21.9654 69.2383 22.0229C70.7908 22.0804 72.2283 21.8504 72.6883 21.3904C73.7234 20.3554 68.6058 20.4704 59.6356 21.7929C55.553 22.4254 49.9179 23.1154 47.1579 23.2879L42.1553 23.6904L41.8103 22.0804C38.9927 8.97015 30.1951 0 20.2474 0C16.9699 0 15.9923 0.287505 13.3473 1.84003ZM26.86 2.30004C32.5526 5.06009 36.8077 10.2352 39.2803 17.4228C41.8678 24.8404 42.3853 24.3229 32.4951 24.0354C26.17 23.8054 23.18 23.4604 20.8799 22.6554C17.8899 21.6204 17.7174 21.4479 16.9699 18.6878C15.0723 11.6727 14.2673 9.14266 13.7498 8.79765C13.1173 8.39515 13.4048 10.0627 15.0148 16.1003C15.6473 18.4578 16.2223 20.5854 16.2223 20.8154C16.2223 21.6204 10.1847 17.7678 8.63222 15.9278C7.7122 14.9503 7.02219 13.5127 7.02219 12.8227C7.02219 10.6952 8.63222 7.36013 10.6448 5.29009C15.1873 0.57501 21.0524 -0.517509 26.86 2.30004ZM21.1099 23.9204C22.8925 24.4954 27.1475 24.9554 32.4951 25.1279L40.9478 25.4729V27.543C40.9478 29.6705 40.9478 29.6705 35.2552 32.3156C32.1501 33.8106 28.1826 35.8231 26.515 36.8581C23.6975 38.4682 23.295 38.5832 21.2824 38.0082L19.0974 37.3182L19.2699 34.4431C19.4424 31.4531 18.9824 26.393 18.2349 24.2079C18.0624 23.5179 17.9474 23.0004 18.0624 23.0004C18.1774 23.0004 19.5574 23.4029 21.1099 23.9204ZM40.3728 31.4531C40.3728 32.4881 35.4277 37.4907 33.4151 38.5257C31.2301 39.6757 25.7675 40.1357 25.1925 39.2157C24.9625 38.8132 38.9352 31.108 39.9703 31.0505C40.2003 31.0505 40.3728 31.223 40.3728 31.4531ZM12.8298 34.9031C15.6473 36.4556 17.9474 37.8357 17.9474 38.0657C17.9474 38.2957 17.4299 39.8482 16.7974 41.5157C13.5198 50.0259 7.25219 51.3484 2.53711 44.5058C0.869584 42.0907 0.524578 40.1932 1.21459 37.5482C2.13461 34.1556 3.85964 32.2006 5.98717 32.2006C6.96469 32.2006 9.95474 33.4081 12.8298 34.9031Z" fill="black"/>
</svg>
